<svg xmlns="http://www.w3.org/2000/svg" viewBox="0 0 600 340" fill="none">
  <rect width="600" height="340" fill="#FBF5F4"/>
  <rect x="0" y="280" width="600" height="60" fill="#F5E8E6"/>
  <!-- Dumbbell -->
  <rect x="180" y="130" width="240" height="12" rx="6" fill="#D4A9A3"/>
  <rect x="160" y="105" width="30" height="62" rx="6" fill="#C4918A"/>
  <rect x="410" y="105" width="30" height="62" rx="6" fill="#C4918A"/>
  <rect x="148" y="115" width="16" height="42" rx="4" fill="#B07D76"/>
  <rect x="436" y="115" width="16" height="42" rx="4" fill="#B07D76"/>
  <!-- Yoga mat roll -->
  <ellipse cx="120" cy="240" rx="30" ry="12" fill="#D4A9A3" opacity="0.4"/>
  <rect x="120" y="228" width="160" height="24" rx="12" fill="#D4A9A3" opacity="0.25"/>
  <ellipse cx="120" cy="240" rx="12" ry="12" fill="#C4918A" opacity="0.3"/>
  <ellipse cx="120" cy="240" rx="5" ry="5" fill="#FBF5F4"/>
  <!-- Water bottle -->
  <rect x="460" y="195" width="22" height="50" rx="8" fill="#D4A9A3" opacity="0.35"/>
  <rect x="464" y="185" width="14" height="14" rx="4" fill="#C4918A" opacity="0.3"/>
  <rect x="462" y="197" width="18" height="4" rx="2" fill="#C4918A" opacity="0.25"/>
  <!-- Heart rate line -->
  <path d="M100 70 L160 70 L180 45 L200 90 L220 30 L240 85 L260 55 L280 70 L500 70" stroke="#C4918A" stroke-width="2.5" fill="none" opacity="0.2" stroke-linecap="round" stroke-linejoin="round"/>
  <!-- Sparkles -->
  <path d="M350 60 L352 68 L360 70 L352 72 L350 80 L348 72 L340 70 L348 68 Z" fill="#C4918A" opacity="0.2"/>
  <path d="M500 100 L501 104 L505 105 L501 106 L500 110 L499 106 L495 105 L499 104 Z" fill="#D4A9A3" opacity="0.2"/>
</svg>
