<svg xmlns="http://www.w3.org/2000/svg" viewBox="0 0 400 300" fill="none">
  <rect width="400" height="300" rx="0" fill="#FBF5F4"/>
  <rect x="0" y="250" width="400" height="50" fill="#F5E8E6"/>
  <!-- Lockers -->
  <g>
    <rect x="80" y="60" width="60" height="80" rx="4" fill="white" stroke="#D4A9A3" stroke-width="1.5"/>
    <circle cx="130" cy="100" r="3" fill="#C4918A"/>
    <rect x="80" y="145" width="60" height="80" rx="4" fill="white" stroke="#D4A9A3" stroke-width="1.5"/>
    <circle cx="130" cy="185" r="3" fill="#C4918A"/>
  </g>
  <g>
    <rect x="145" y="60" width="60" height="80" rx="4" fill="white" stroke="#D4A9A3" stroke-width="1.5"/>
    <circle cx="195" cy="100" r="3" fill="#C4918A"/>
    <rect x="145" y="145" width="60" height="80" rx="4" fill="white" stroke="#D4A9A3" stroke-width="1.5"/>
    <circle cx="195" cy="185" r="3" fill="#C4918A"/>
  </g>
  <g>
    <rect x="210" y="60" width="60" height="80" rx="4" fill="white" stroke="#D4A9A3" stroke-width="1.5"/>
    <circle cx="260" cy="100" r="3" fill="#C4918A"/>
    <rect x="210" y="145" width="60" height="80" rx="4" fill="white" stroke="#D4A9A3" stroke-width="1.5"/>
    <circle cx="260" cy="185" r="3" fill="#C4918A"/>
  </g>
  <!-- Mirror -->
  <rect x="295" y="70" width="40" height="100" rx="20" fill="white" stroke="#D4A9A3" stroke-width="1.5"/>
  <rect x="300" y="76" width="30" height="88" rx="15" fill="#C4918A" opacity="0.06"/>
  <!-- Shelf with items -->
  <rect x="295" y="190" width="50" height="6" rx="2" fill="#D4A9A3"/>
  <rect x="300" y="178" width="14" height="12" rx="3" fill="#C4918A" opacity="0.3"/>
  <rect x="318" y="175" width="10" height="15" rx="2" fill="#B07D76" opacity="0.2"/>
  <rect x="332" y="180" width="8" height="10" rx="2" fill="#D4A9A3" opacity="0.3"/>
</svg>
